<svg xmlns="http://www.w3.org/2000/svg" width="24" height="24" viewBox="0 0 24 24" fill="currentColor" stroke="none">
  <path d="M12 0C5.373 0 0 5.373 0 12s5.373 12 12 12 12-5.373 12-12S18.627 0 12 0zm4.127 13.631c-.04.667-.282 1.22-.727 1.66-.445.44-.997.681-1.654.723-.37.023-.87.035-1.5.035h-.492c-.63 0-1.13-.012-1.5-.035-.657-.042-1.21-.282-1.654-.723-.445-.44-.687-.993-.727-1.66-.023-.383-.035-.992-.035-1.828v-.41c0-.835.012-1.444.035-1.828.04-.666.282-1.22.727-1.66.445-.44.997-.68 1.654-.722.37-.024.87-.035 1.5-.035h.492c.63 0 1.13.011 1.5.035.657.041 1.21.282 1.654.723.445.44.687.993.727 1.66.023.383.035.992.035 1.827v.41c0 .836-.012 1.445-.035 1.828zm-1.395-3.824c-.023-.398-.162-.73-.418-.996-.256-.265-.578-.41-.968-.433-.332-.02-.793-.031-1.381-.031h-.395c-.588 0-1.05.01-1.38.031-.391.024-.713.168-.97.433-.255.266-.394.598-.417.996-.02.343-.031.893-.031 1.651v.3c0 .758.01 1.308.031 1.652.023.397.162.73.418.995.256.266.578.41.969.434.33.02.791.03 1.38.03h.395c.588 0 1.049-.01 1.38-.03.391-.024.713-.168.969-.434.256-.266.395-.598.418-.995.02-.344.03-.894.03-1.652v-.3c0-.758-.01-1.308-.03-1.651z"/>
</svg>
