<svg xmlns="http://www.w3.org/2000/svg" width="24" height="24" viewBox="0 0 24 24" fill="currentColor" stroke="none">
  <path d="M5.721 0C2.251 0 0 2.25 0 5.719V18.28C0 21.751 2.252 24 5.721 24h12.56C21.751 24 24 21.75 24 18.281V5.72C24 2.249 21.75 0 18.281 0zm1.964 4.078h6.46c.09 0 .164.073.164.164v.921c0 .09-.073.164-.163.164H9.66l-.243 1.781h4.316c.09 0 .164.074.164.164v.164c0 2.725-.834 4.756-2.537 6.275-.614.548-1.3.977-2.044 1.322a.164.164 0 0 1-.21-.065l-.468-.77a.164.164 0 0 1 .072-.223c.586-.27 1.124-.61 1.614-1.023 1.322-1.115 2.026-2.654 2.148-4.752H9.172l-.545 4.328c-.27 2.143-.568 3.418-1.202 4.438a.164.164 0 0 1-.232.05l-.74-.534a.164.164 0 0 1-.043-.226c.522-.85.79-2 1.04-3.972l.69-5.482.363-2.76a.164.164 0 0 1 .162-.143zm7.828 2.672h2.51c.091 0 .165.074.165.164v9.18c0 .09-.074.163-.164.163h-1.065a.164.164 0 0 1-.164-.163v-7.69h-1.282a.164.164 0 0 1-.164-.163V6.914c0-.09.073-.164.164-.164z"/>
</svg>
